<svg width="34" height="34" viewBox="0 0 34 34" fill="none" xmlns="http://www.w3.org/2000/svg">
<path d="M8.81677 22.5162C9.17292 22.1722 9.64993 21.9819 10.1451 21.9862C10.6402 21.9905 11.1138 22.1891 11.4639 22.5392C11.814 22.8894 12.0126 23.363 12.0169 23.8582C12.0212 24.3533 11.8309 24.8303 11.4869 25.1865L6.44876 30.2231H9.44182C9.90463 30.2232 10.3513 30.3933 10.697 30.701C11.0427 31.0088 11.2633 31.4328 11.317 31.8925L11.3302 32.1115C11.3302 32.6124 11.1312 33.0927 10.7771 33.4469C10.423 33.801 9.94265 34 9.44182 34H1.88836C1.38754 34 0.907226 33.801 0.553089 33.4469C0.198952 33.0927 0 32.6124 0 32.1115V24.5577C0 24.0568 0.198952 23.5765 0.553089 23.2223C0.907226 22.8681 1.38754 22.6692 1.88836 22.6692C2.38919 22.6692 2.8695 22.8681 3.22364 23.2223C3.57778 23.5765 3.77673 24.0568 3.77673 24.5577V27.5547L8.81677 22.5162V22.5162ZM24.5582 34C24.0574 34 23.577 33.801 23.2229 33.4469C22.8688 33.0927 22.6698 32.6124 22.6698 32.1115C22.6698 31.6107 22.8688 31.1303 23.2229 30.7762C23.577 30.422 24.0574 30.2231 24.5582 30.2231H27.5475L22.515 25.1865C22.1898 24.8613 21.9945 24.4287 21.9657 23.9697C21.9368 23.5108 22.0764 23.0571 22.3582 22.6937L22.515 22.5162C22.8691 22.1622 23.3493 21.9633 23.85 21.9633C24.3508 21.9633 24.831 22.1622 25.1851 22.5162L30.2233 27.5584V24.5577C30.2233 24.0951 30.3931 23.6487 30.7005 23.303C31.0078 22.9574 31.4314 22.7365 31.8907 22.6824L32.1116 22.6692C32.6125 22.6692 33.0928 22.8681 33.4469 23.2223C33.801 23.5765 34 24.0568 34 24.5577V32.1115C34 32.6124 33.801 33.0927 33.4469 33.4469C33.0928 33.801 32.6125 34 32.1116 34H24.5582V34ZM9.44182 0C9.94265 0 10.423 0.198963 10.7771 0.55312C11.1312 0.907276 11.3302 1.38762 11.3302 1.88847C11.3302 2.38932 11.1312 2.86966 10.7771 3.22382C10.423 3.57797 9.94265 3.77694 9.44182 3.77694H6.45254L11.485 8.81537C11.8102 9.14056 12.0055 9.5732 12.0343 10.0322C12.0632 10.4911 11.9236 10.9448 11.6418 11.3082L11.485 11.4857C11.1309 11.8397 10.6507 12.0386 10.15 12.0386C9.64923 12.0386 9.16901 11.8397 8.81489 11.4857L3.77673 6.44346V9.44235C3.77667 9.9049 3.60686 10.3513 3.29951 10.697C2.99216 11.0426 2.56865 11.2635 2.1093 11.3176L1.88836 11.3308C1.38754 11.3308 0.907226 11.1319 0.553089 10.7777C0.198952 10.4235 0 9.9432 0 9.44235V1.88847C0 1.38762 0.198952 0.907276 0.553089 0.55312C0.907226 0.198963 1.38754 0 1.88836 0H9.44182ZM32.1116 0C32.6125 0 33.0928 0.198963 33.4469 0.55312C33.801 0.907276 34 1.38762 34 1.88847V9.44235C34 9.9432 33.801 10.4235 33.4469 10.7777C33.0928 11.1319 32.6125 11.3308 32.1116 11.3308C31.6108 11.3308 31.1305 11.1319 30.7764 10.7777C30.4222 10.4235 30.2233 9.9432 30.2233 9.44235V6.44346L25.1851 11.4857C24.86 11.8108 24.4273 12.0061 23.9684 12.035C23.5095 12.0639 23.0558 11.9243 22.6925 11.6424L22.515 11.4857C22.161 11.1315 21.9621 10.6513 21.9621 10.1505C21.9621 9.64977 22.161 9.16951 22.515 8.81537L27.5494 3.77694H24.5582C24.0957 3.77688 23.6492 3.60706 23.3036 3.29969C22.958 2.99233 22.7371 2.56879 22.683 2.10942L22.6698 1.88847C22.6698 1.38762 22.8688 0.907276 23.2229 0.55312C23.577 0.198963 24.0574 0 24.5582 0H32.1116Z" fill="white"/>
</svg>
