<svg width="34" height="34" viewBox="0 0 34 34" fill="none" xmlns="http://www.w3.org/2000/svg">
<path d="M3.20023 33.4699C2.84408 33.8139 2.36708 34.0042 1.87196 33.9999C1.37683 33.9956 0.903207 33.797 0.553089 33.4469C0.202971 33.0967 0.00437387 32.6231 7.13852e-05 32.1279C-0.0042311 31.6328 0.186105 31.1558 0.530086 30.7996L5.56824 25.763H2.57519C2.11237 25.7629 1.66572 25.5928 1.32004 25.2851C0.974357 24.9773 0.753726 24.5533 0.70004 24.0936L0.686821 23.8746C0.686821 23.3737 0.885774 22.8934 1.23991 22.5392C1.59405 22.1851 2.07436 21.9861 2.57519 21.9861H10.1286C10.6295 21.9861 11.1098 22.1851 11.4639 22.5392C11.8181 22.8934 12.017 23.3737 12.017 23.8746V31.4285C12.017 31.9293 11.8181 32.4096 11.4639 32.7638C11.1098 33.118 10.6295 33.3169 10.1286 33.3169C9.62782 33.3169 9.14751 33.118 8.79337 32.7638C8.43923 32.4096 8.24028 31.9293 8.24028 31.4285V28.4315L3.20023 33.4699ZM31.4038 21.9633C31.9046 21.9633 32.3849 22.1623 32.739 22.5164C33.0932 22.8706 33.2921 23.3509 33.2921 23.8518C33.2921 24.3526 33.0932 24.833 32.739 25.1871C32.3849 25.5413 31.9046 25.7402 31.4038 25.7402H28.4145L33.447 30.7768C33.7721 31.102 33.9674 31.5346 33.9963 31.9936C34.0251 32.4525 33.8855 32.9062 33.6037 33.2696L33.447 33.4471C33.0929 33.8011 32.6126 34 32.1119 34C31.6112 34 31.1309 33.8011 30.7768 33.4471L25.7387 28.4049V31.4057C25.7386 31.8682 25.5688 32.3146 25.2615 32.6603C24.9541 33.0059 24.5306 33.2268 24.0712 33.2809L23.8503 33.2941C23.3495 33.2941 22.8692 33.0952 22.515 32.741C22.1609 32.3868 21.9619 31.9065 21.9619 31.4057V23.8518C21.9619 23.3509 22.1609 22.8706 22.515 22.5164C22.8692 22.1623 23.3495 21.9633 23.8503 21.9633H31.4038ZM2.59624 12.0386C2.09541 12.0386 1.6151 11.8396 1.26096 11.4855C0.906827 11.1313 0.707874 10.651 0.707874 10.1501C0.707874 9.64927 0.906827 9.16893 1.26096 8.81477C1.6151 8.46061 2.09541 8.26165 2.59624 8.26165H5.58552L0.553028 3.22321C0.227896 2.89803 0.0325807 2.46538 0.00372427 2.00644C-0.0251322 1.54749 0.114453 1.09378 0.396294 0.730435L0.553028 0.552919C0.907149 0.198885 1.38737 0 1.8881 0C2.38883 0 2.86905 0.198885 3.22318 0.552919L8.26133 5.59513V2.59624C8.26139 2.13369 8.4312 1.68725 8.73855 1.3416C9.0459 0.995939 9.46941 0.77511 9.92876 0.720992L10.1497 0.707772C10.6505 0.707772 11.1308 0.906736 11.485 1.26089C11.8391 1.61505 12.0381 2.09539 12.0381 2.59624V10.1501C12.0381 10.651 11.8391 11.1313 11.485 11.4855C11.1308 11.8396 10.6505 12.0386 10.1497 12.0386H2.59624ZM23.8504 12.0387C23.3496 12.0387 22.8693 11.8398 22.5152 11.4856C22.161 11.1315 21.9621 10.6511 21.9621 10.1503V2.59638C21.9621 2.09553 22.161 1.61519 22.5152 1.26103C22.8693 0.906877 23.3496 0.707913 23.8504 0.707913C24.3513 0.707913 24.8316 0.906877 25.1857 1.26103C25.5399 1.61519 25.7388 2.09553 25.7388 2.59638V5.59527L30.777 0.553059C31.1021 0.227909 31.5348 0.0325825 31.9937 0.00372447C32.4526 -0.0251336 32.9063 0.114459 33.2696 0.396316L33.4471 0.553059C33.8011 0.9072 34 1.38745 34 1.88821C34 2.38896 33.8011 2.86921 33.4471 3.22335L28.4127 8.26179H31.4039C31.8664 8.26185 32.3128 8.43167 32.6585 8.73904C33.0041 9.0464 33.2249 9.46994 33.279 9.92931L33.2923 10.1503C33.2923 10.6511 33.0933 11.1315 32.7392 11.4856C32.385 11.8398 31.9047 12.0387 31.4039 12.0387H23.8504Z" fill="white"/>
</svg>
